<?xml version="1.0" encoding="utf-8"?>
<!-- Generator: Adobe Illustrator 25.0.0, SVG Export Plug-In . SVG Version: 6.00 Build 0)  -->
<svg version="1.1" id="Layer_1" xmlns="http://www.w3.org/2000/svg" xmlns:xlink="http://www.w3.org/1999/xlink" x="0px" y="0px"
	 viewBox="0 0 1378.72 1110.55" style="enable-background:new 0 0 1378.72 1110.55;" xml:space="preserve">
<style type="text/css">
	.st0{fill:#262626;}
	.st1{fill:#FFFFFF;}
	.st2{fill:none;}
	.st3{font-family:'MyriadPro-Regular';}
	.st4{font-size:39px;}
	.st5{letter-spacing:7;}
</style>
<g>
	<g>
		<path class="st1" d="M274.5,370.79c-19.47,26.89-35.09,48.89-34.71,48.9c0.43,0.07,5.02-1.13,10.32-2.65l9.53-2.84l6.22,9.28
			c3.36,5.12,6.28,9.62,6.54,9.99c0.16,0.36,1.32,1.6,2.4,2.71c1.27,1.26,2.44,3.43,3.1,5.68c0.59,2.02,1.17,3.77,1.26,3.89
			c0.09,0.12,1.57-0.83,3.25-2.03c1.75-1.24,2.94-2.47,2.76-2.72c-0.22-0.31-1.77-1.56-3.48-2.79c-1.87-1.3-3.53-3.12-4.13-4.48
			c-0.61-1.25-4.02-6.44-7.67-11.45c-6.16-8.67-6.5-9.27-5.22-9.72c0.76-0.26,5.39-1.67,10.24-3.15l8.9-2.66l8.65,11.78l8.64,11.89
			l117.24-83.35l-16.76-23.57l6.7-9.46c3.67-5.14,9.76-13.61,13.6-18.77c6.32-8.53,8.53-12.17,6.66-10.84
			c-0.44,0.31-26.65,8.34-58.23,17.93c-31.69,9.57-58.17,17.88-58.93,18.52C310.6,321.47,294.02,343.96,274.5,370.79L274.5,370.79z
			 M274.5,370.79"/>
	</g>
	<path class="st1" d="M391.7,414.38c-16,1.8-27.4,6.6-35.5,14.8c-7.7,7.9-9.9,14.1-10,27.6c0,9.9,0.2,10.9,3.3,17.2
		c6.6,13.4,19.5,21.1,46.2,27.4c17.3,4.1,25.7,8.9,28.1,16.1c3.7,11.4-7.5,20.3-24.3,19.1c-12-0.9-21-7.6-22.6-16.9l-0.8-4.4
		l-15.7-0.3l-15.7-0.3v4.3c0.1,15.2,10.7,31,25.5,37.9c10.4,4.9,17.7,6.3,32.5,6.3c21.4,0,34.2-4.5,44.5-15.6
		c8.6-9.3,12.1-22,9.5-35c-1.6-8.2-4.2-13.1-9.9-18.7c-7.9-7.7-18.5-12.6-39.1-18.1c-15.7-4.1-23.3-7.5-27.1-11.8
		c-2.9-3.2-3.1-4-2.7-9.1c0.4-4.9,0.9-5.9,4.2-8.7c4-3.5,10.5-5.4,17.9-5.4c11.9,0,21.5,7.1,23.2,17l0.7,4h30.8v-3.8
		c0-5-2.2-12.6-5.3-18.8c-5.4-10.6-18.1-19.7-32-22.9C410.6,414.78,397.2,413.78,391.7,414.38L391.7,414.38z M391.7,414.38"/>
	<path class="st1" d="M1113.8,414.88c-14.4,1.9-28.5,8.5-34.3,16.2c-7,9.1-10,21.1-8.1,32.2c3.3,19.3,15.8,29.2,46.9,37.4
		c17.5,4.6,22.8,6.8,27.4,11.6c4.3,4.4,5.2,11.3,2.1,16.2c-3.5,5.6-9.1,7.7-20.1,7.8c-8.2,0-10.2-0.4-14.5-2.6
		c-6-3-10.4-8.9-11.2-14.7l-0.6-4.2h-31.7v3.8c0,9.6,5.6,22.5,13,29.6c5.5,5.4,14.3,10.2,23.3,12.7c10.6,3,31.5,3.3,41.7,0.6
		c15.5-4.1,25.8-11.8,31.3-23.5c3-6.2,3.2-7.5,3.2-17.2c0-9.9-0.2-10.9-3.3-17.2c-2.1-4.2-5-8.2-8-10.8c-6.8-6-20.7-12.4-35.7-16.4
		c-15.6-4.2-20.7-5.9-25.2-8.8c-10.3-6.3-9.5-19.1,1.5-24.1c6.8-3.2,19.9-3.1,26.3,0.1c5.5,2.7,9.5,8,10.5,13.9l0.7,4.3h30.7v-4.4
		c0-6.9-3.6-16.8-8.4-23.3c-7.9-10.8-20.2-17.1-37.8-19.3C1124.3,413.68,1123,413.68,1113.8,414.88L1113.8,414.88z M1113.8,414.88"
		/>
	<path class="st1" d="M585.7,488.68v72.1h33v-40h14.8c18-0.1,28.1-1.8,37.8-6.4c17.8-8.4,27.4-24.4,27.4-45.6
		c0-25.1-13.6-42.6-38.5-49.7c-5-1.4-12-1.7-40.2-2.1l-34.3-0.4V488.68z M650,447.18c6.7,2,10.6,5.3,13.3,11
		c4.2,9,2.9,19.8-3.2,26.6c-5.6,6.2-10.4,7.5-27.4,7.5h-14.5l-0.3-23.3l-0.2-23.2h13.8C640.39,445.78,647,446.28,650,447.18
		L650,447.18z M650,447.18"/>
	<path class="st1" d="M822.89,466.98l0.3,50.3l2.7,8c6.1,18.1,17.3,29.3,35.1,35.2c7.3,2.3,9.7,2.6,21.7,2.6s14.4-0.3,21.7-2.6
		c17.9-6,29.2-17.5,35.4-36.2c2.3-6.9,2.3-7.9,2.7-57.3l0.3-50.2h-31.9l-0.4,46.2c-0.5,50.8-0.6,52.1-6.7,60.5
		c-4.5,6.2-10.7,8.8-21.1,8.8c-10.4,0-16.6-2.6-21.1-8.8c-6.1-8.4-6.2-9.7-6.7-60.5l-0.4-46.2h-31.9L822.89,466.98z M822.89,466.98"
		/>
</g>
<rect x="330.5" y="554.59" class="st2" width="896.68" height="120.51"/>
<text transform="matrix(1 0 0 1 375.3657 675.0516)" class="st1 st3 st4 st5">SYRIAN PRIVATE UNIVERSITIES SITE</text>
</svg>
