<?xml version="1.0" encoding="utf-8"?>
<!-- Generator: Adobe Illustrator 24.1.1, SVG Export Plug-In . SVG Version: 6.00 Build 0)  -->
<svg version="1.1" id="Layer_1" xmlns="http://www.w3.org/2000/svg" xmlns:xlink="http://www.w3.org/1999/xlink" x="0px" y="0px"
	 viewBox="0 0 717 404" style="enable-background:new 0 0 717 404;" xml:space="preserve">
<style type="text/css">
	.st0{display:none;}
	.st1{font-family:'MyriadPro-Regular';}
	.st2{font-size:12px;}
	.st3{fill:#A38151;}
	.st4{fill:#19305A;}
</style>
<image style="display:none;overflow:visible;" width="1080" height="525" xlink:href="4E5785FC.jpg"  transform="matrix(1 0 0 1 -290 -89)">
</image>
<text transform="matrix(1 0 0 1 294.1887 117.042)" class="st0 st1 st2">https://jude.edu.sy/index.php</text>
<image style="display:none;overflow:visible;" width="1070" height="186" xlink:href="C:\Users\AQSA GROUP\Desktop\logo11.png"  transform="matrix(0.48 0 0 0.48 59 269)">
</image>
<polygon class="st3" points="63.8,71 141.7,42.7 219.6,71 141.7,102.9 "/>
<path class="st3" d="M191.3,85.2v38.9c0,0-31.9-3.5-31.9,24.8s0,109.8,0,109.8s3.5,77.9-74.4,99.1v-14.2c0,0,35.4-10.6,35.4-74.4
	V148.9c0,0,3.5-28.3-31.9-24.8V85.2l53.1,21.2L191.3,85.2"/>
<rect x="63.8" y="71" class="st3" width="3.5" height="53.1"/>
<circle class="st3" cx="65.6" cy="113.5" r="7.1"/>
<ellipse class="st3" cx="65.6" cy="133" rx="7.1" ry="8.9"/>
<path class="st4" d="M380.2,140.1c-19.6-24.2-54.4-23-54.4-23H205.4v10.6c31.9,0,31.9,28.3,31.9,28.3v162.9
	c0,31.9-31.9,28.3-31.9,28.3l-3.5,10.6h106.2l3.5-10.6c-42.5,0-38.9-28.3-38.9-28.3v-63.7c47.2,12.9,75.8,3.6,94.6-10.3
	C410.8,212.6,393.1,156,380.2,140.1z M272.7,237.4v-88.5c0,0-3.5-17.7,17.7-17.7h17.7c0,0,46,0,46,56.6
	C354.1,187.9,354.1,269.3,272.7,237.4z"/>
<path class="st4" d="M378.9,117.1h106.2v10.6c0,0-31.9-7.1-31.9,21.2v109.8c0,0,0,77.9,67.3,77.9c0,0,74.4,3.5,74.4-77.9V145.4
	c0,0-3.5-21.2-38.9-21.2v-7.1H648v10.6c0,0-35.4-10.6-35.4,35.4v95.6c0,0,0,99.1-95.6,99.1c0,0-102.7,10.6-102.7-102.7
	s0-109.8,0-109.8s0-17.7-35.4-17.7V117.1z"/>
</svg>
